<?xml version="1.0" encoding="UTF-8" standalone="no"?>
<svg xmlns="http://www.w3.org/2000/svg" xmlns:xlink="http://www.w3.org/1999/xlink" contentScriptType="application/ecmascript" contentStyleType="text/css" height="377px" preserveAspectRatio="none" style="width:997px;height:377px;" version="1.1" viewBox="0 0 997 377" width="997px" zoomAndPan="magnify"><defs><filter height="300%" id="f1tfc5sth3fy40" width="300%" x="-1" y="-1"><feGaussianBlur result="blurOut" stdDeviation="2.0"/><feColorMatrix in="blurOut" result="blurOut2" type="matrix" values="0 0 0 0 0 0 0 0 0 0 0 0 0 0 0 0 0 0 .4 0"/><feOffset dx="4.0" dy="4.0" in="blurOut2" result="blurOut3"/><feBlend in="SourceGraphic" in2="blurOut3" mode="normal"/></filter></defs><g><!--class ThemePark--><rect fill="#FEFECE" filter="url(#f1tfc5sth3fy40)" height="86.4141" id="ThemePark" style="stroke: #A80036; stroke-width: 1.5;" width="199" x="271.426" y="8"/><ellipse cx="331.676" cy="24" fill="#ADD1B2" rx="11" ry="11" style="stroke: #A80036; stroke-width: 1.0;"/><path d="M334.6448,29.6406 Q334.0666,29.9375 333.426,30.0859 Q332.7854,30.2344 332.0823,30.2344 Q329.5823,30.2344 328.2619,28.5859 Q326.9416,26.9375 326.9416,23.8125 Q326.9416,20.6875 328.2619,19.0313 Q329.5823,17.375 332.0823,17.375 Q332.7854,17.375 333.4338,17.5313 Q334.0823,17.6875 334.6448,17.9844 L334.6448,20.7031 Q334.0198,20.125 333.426,19.8516 Q332.8323,19.5781 332.2073,19.5781 Q330.8635,19.5781 330.176,20.6484 Q329.4885,21.7188 329.4885,23.8125 Q329.4885,25.9063 330.176,26.9766 Q330.8635,28.0469 332.2073,28.0469 Q332.8323,28.0469 333.426,27.7734 Q334.0198,27.5 334.6448,26.9219 L334.6448,29.6406 Z "/><text fill="#000000" font-family="sans-serif" font-size="12" lengthAdjust="spacingAndGlyphs" textLength="70" x="352.176" y="28.1543">ThemePark</text><line style="stroke: #A80036; stroke-width: 1.5;" x1="272.426" x2="469.426" y1="40" y2="40"/><text fill="#000000" font-family="sans-serif" font-size="11" lengthAdjust="spacingAndGlyphs" textLength="187" x="277.426" y="54.2104">ArrayList&lt;Attraction&gt; attractions</text><text fill="#000000" font-family="sans-serif" font-size="11" lengthAdjust="spacingAndGlyphs" textLength="128" x="277.426" y="67.0151">ArrayList&lt;Stall&gt; stalls</text><line style="stroke: #A80036; stroke-width: 1.5;" x1="272.426" x2="469.426" y1="73.6094" y2="73.6094"/><text fill="#000000" font-family="sans-serif" font-size="11" lengthAdjust="spacingAndGlyphs" textLength="129" x="277.426" y="87.8198">visit(Visitor, Attraction)</text><!--class Visitor--><rect fill="#FEFECE" filter="url(#f1tfc5sth3fy40)" height="86.4141" id="Visitor" style="stroke: #A80036; stroke-width: 1.5;" width="92" x="700.926" y="8"/><ellipse cx="725.376" cy="24" fill="#ADD1B2" rx="11" ry="11" style="stroke: #A80036; stroke-width: 1.0;"/><path d="M728.3448,29.6406 Q727.7666,29.9375 727.126,30.0859 Q726.4854,30.2344 725.7823,30.2344 Q723.2823,30.2344 721.9619,28.5859 Q720.6416,26.9375 720.6416,23.8125 Q720.6416,20.6875 721.9619,19.0313 Q723.2823,17.375 725.7823,17.375 Q726.4854,17.375 727.1338,17.5313 Q727.7823,17.6875 728.3448,17.9844 L728.3448,20.7031 Q727.7198,20.125 727.126,19.8516 Q726.5323,19.5781 725.9073,19.5781 Q724.5635,19.5781 723.876,20.6484 Q723.1885,21.7188 723.1885,23.8125 Q723.1885,25.9063 723.876,26.9766 Q724.5635,28.0469 725.9073,28.0469 Q726.5323,28.0469 727.126,27.7734 Q727.7198,27.5 728.3448,26.9219 L728.3448,29.6406 Z "/><text fill="#000000" font-family="sans-serif" font-size="12" lengthAdjust="spacingAndGlyphs" textLength="39" x="741.476" y="28.1543">Visitor</text><line style="stroke: #A80036; stroke-width: 1.5;" x1="701.926" x2="791.926" y1="40" y2="40"/><text fill="#000000" font-family="sans-serif" font-size="11" lengthAdjust="spacingAndGlyphs" textLength="39" x="706.926" y="54.2104">int age</text><text fill="#000000" font-family="sans-serif" font-size="11" lengthAdjust="spacingAndGlyphs" textLength="53" x="706.926" y="67.0151">int height</text><text fill="#000000" font-family="sans-serif" font-size="11" lengthAdjust="spacingAndGlyphs" textLength="80" x="706.926" y="79.8198">double money</text><line style="stroke: #A80036; stroke-width: 1.5;" x1="701.926" x2="791.926" y1="86.4141" y2="86.4141"/><!--class Stall--><rect fill="#FEFECE" filter="url(#f1tfc5sth3fy40)" height="86.4141" id="Stall" style="stroke: #A80036; stroke-width: 1.5;" width="118" x="594.926" y="171"/><ellipse cx="636.476" cy="187" fill="#A9DCDF" rx="11" ry="11" style="stroke: #A80036; stroke-width: 1.0;"/><path d="M636.5854,182.3438 L635.4291,187.4219 L637.7573,187.4219 L636.5854,182.3438 Z M635.101,180.1094 L638.0854,180.1094 L641.4448,192.5 L638.9916,192.5 L638.226,189.4375 L634.9448,189.4375 L634.1948,192.5 L631.7573,192.5 L635.101,180.1094 Z "/><text fill="#000000" font-family="sans-serif" font-size="12" font-style="italic" lengthAdjust="spacingAndGlyphs" textLength="27" x="656.376" y="191.1543">Stall</text><line style="stroke: #A80036; stroke-width: 1.5;" x1="595.926" x2="711.926" y1="203" y2="203"/><text fill="#000000" font-family="sans-serif" font-size="11" lengthAdjust="spacingAndGlyphs" textLength="70" x="600.926" y="217.2104">String name</text><text fill="#000000" font-family="sans-serif" font-size="11" lengthAdjust="spacingAndGlyphs" textLength="106" x="600.926" y="230.0151">String ownerName</text><text fill="#000000" font-family="sans-serif" font-size="11" lengthAdjust="spacingAndGlyphs" textLength="106" x="600.926" y="242.8198">String parkingSpot</text><line style="stroke: #A80036; stroke-width: 1.5;" x1="595.926" x2="711.926" y1="249.4141" y2="249.4141"/><!--class IceCreamStall--><rect fill="#FEFECE" filter="url(#f1tfc5sth3fy40)" height="48" id="IceCreamStall" style="stroke: #A80036; stroke-width: 1.5;" width="117" x="705.426" y="318"/><ellipse cx="720.426" cy="334" fill="#ADD1B2" rx="11" ry="11" style="stroke: #A80036; stroke-width: 1.0;"/><path d="M723.3948,339.6406 Q722.8166,339.9375 722.176,340.0859 Q721.5354,340.2344 720.8323,340.2344 Q718.3323,340.2344 717.0119,338.5859 Q715.6916,336.9375 715.6916,333.8125 Q715.6916,330.6875 717.0119,329.0313 Q718.3323,327.375 720.8323,327.375 Q721.5354,327.375 722.1838,327.5313 Q722.8323,327.6875 723.3948,327.9844 L723.3948,330.7031 Q722.7698,330.125 722.176,329.8516 Q721.5823,329.5781 720.9573,329.5781 Q719.6135,329.5781 718.926,330.6484 Q718.2385,331.7188 718.2385,333.8125 Q718.2385,335.9063 718.926,336.9766 Q719.6135,338.0469 720.9573,338.0469 Q721.5823,338.0469 722.176,337.7734 Q722.7698,337.5 723.3948,336.9219 L723.3948,339.6406 Z "/><text fill="#000000" font-family="sans-serif" font-size="12" lengthAdjust="spacingAndGlyphs" textLength="85" x="734.426" y="338.1543">IceCreamStall</text><line style="stroke: #A80036; stroke-width: 1.5;" x1="706.426" x2="821.426" y1="350" y2="350"/><line style="stroke: #A80036; stroke-width: 1.5;" x1="706.426" x2="821.426" y1="358" y2="358"/><!--class CandyFlossStall--><rect fill="#FEFECE" filter="url(#f1tfc5sth3fy40)" height="48" id="CandyFlossStall" style="stroke: #A80036; stroke-width: 1.5;" width="129" x="857.426" y="318"/><ellipse cx="872.426" cy="334" fill="#ADD1B2" rx="11" ry="11" style="stroke: #A80036; stroke-width: 1.0;"/><path d="M875.3948,339.6406 Q874.8166,339.9375 874.176,340.0859 Q873.5354,340.2344 872.8323,340.2344 Q870.3323,340.2344 869.0119,338.5859 Q867.6916,336.9375 867.6916,333.8125 Q867.6916,330.6875 869.0119,329.0313 Q870.3323,327.375 872.8323,327.375 Q873.5354,327.375 874.1838,327.5313 Q874.8323,327.6875 875.3948,327.9844 L875.3948,330.7031 Q874.7698,330.125 874.176,329.8516 Q873.5823,329.5781 872.9573,329.5781 Q871.6135,329.5781 870.926,330.6484 Q870.2385,331.7188 870.2385,333.8125 Q870.2385,335.9063 870.926,336.9766 Q871.6135,338.0469 872.9573,338.0469 Q873.5823,338.0469 874.176,337.7734 Q874.7698,337.5 875.3948,336.9219 L875.3948,339.6406 Z "/><text fill="#000000" font-family="sans-serif" font-size="12" lengthAdjust="spacingAndGlyphs" textLength="97" x="886.426" y="338.1543">CandyFlossStall</text><line style="stroke: #A80036; stroke-width: 1.5;" x1="858.426" x2="985.426" y1="350" y2="350"/><line style="stroke: #A80036; stroke-width: 1.5;" x1="858.426" x2="985.426" y1="358" y2="358"/><!--class TobaccoStall--><rect fill="#FEFECE" filter="url(#f1tfc5sth3fy40)" height="48" id="TobaccoStall" style="stroke: #A80036; stroke-width: 1.5;" width="112" x="557.926" y="318"/><ellipse cx="572.926" cy="334" fill="#ADD1B2" rx="11" ry="11" style="stroke: #A80036; stroke-width: 1.0;"/><path d="M575.8948,339.6406 Q575.3166,339.9375 574.676,340.0859 Q574.0354,340.2344 573.3323,340.2344 Q570.8323,340.2344 569.5119,338.5859 Q568.1916,336.9375 568.1916,333.8125 Q568.1916,330.6875 569.5119,329.0313 Q570.8323,327.375 573.3323,327.375 Q574.0354,327.375 574.6838,327.5313 Q575.3323,327.6875 575.8948,327.9844 L575.8948,330.7031 Q575.2698,330.125 574.676,329.8516 Q574.0823,329.5781 573.4573,329.5781 Q572.1135,329.5781 571.426,330.6484 Q570.7385,331.7188 570.7385,333.8125 Q570.7385,335.9063 571.426,336.9766 Q572.1135,338.0469 573.4573,338.0469 Q574.0823,338.0469 574.676,337.7734 Q575.2698,337.5 575.8948,336.9219 L575.8948,339.6406 Z "/><text fill="#000000" font-family="sans-serif" font-size="12" lengthAdjust="spacingAndGlyphs" textLength="80" x="586.926" y="338.1543">TobaccoStall</text><line style="stroke: #A80036; stroke-width: 1.5;" x1="558.926" x2="668.926" y1="350" y2="350"/><line style="stroke: #A80036; stroke-width: 1.5;" x1="558.926" x2="668.926" y1="358" y2="358"/><!--class Attraction--><rect fill="#FEFECE" filter="url(#f1tfc5sth3fy40)" height="60.8047" id="Attraction" style="stroke: #A80036; stroke-width: 1.5;" width="94" x="254.926" y="183.5"/><ellipse cx="269.926" cy="199.5" fill="#A9DCDF" rx="11" ry="11" style="stroke: #A80036; stroke-width: 1.0;"/><path d="M270.0354,194.8438 L268.8791,199.9219 L271.2073,199.9219 L270.0354,194.8438 Z M268.551,192.6094 L271.5354,192.6094 L274.8948,205 L272.4416,205 L271.676,201.9375 L268.3948,201.9375 L267.6448,205 L265.2073,205 L268.551,192.6094 Z "/><text fill="#000000" font-family="sans-serif" font-size="12" font-style="italic" lengthAdjust="spacingAndGlyphs" textLength="62" x="283.926" y="203.6543">Attraction</text><line style="stroke: #A80036; stroke-width: 1.5;" x1="255.926" x2="347.926" y1="215.5" y2="215.5"/><text fill="#000000" font-family="sans-serif" font-size="11" lengthAdjust="spacingAndGlyphs" textLength="70" x="260.926" y="229.7104">String name</text><line style="stroke: #A80036; stroke-width: 1.5;" x1="255.926" x2="347.926" y1="236.3047" y2="236.3047"/><!--class RollerCoaster--><rect fill="#FEFECE" filter="url(#f1tfc5sth3fy40)" height="48" id="RollerCoaster" style="stroke: #A80036; stroke-width: 1.5;" width="116" x="269.926" y="318"/><ellipse cx="284.926" cy="334" fill="#ADD1B2" rx="11" ry="11" style="stroke: #A80036; stroke-width: 1.0;"/><path d="M287.8948,339.6406 Q287.3166,339.9375 286.676,340.0859 Q286.0354,340.2344 285.3323,340.2344 Q282.8323,340.2344 281.5119,338.5859 Q280.1916,336.9375 280.1916,333.8125 Q280.1916,330.6875 281.5119,329.0313 Q282.8323,327.375 285.3323,327.375 Q286.0354,327.375 286.6838,327.5313 Q287.3323,327.6875 287.8948,327.9844 L287.8948,330.7031 Q287.2698,330.125 286.676,329.8516 Q286.0823,329.5781 285.4573,329.5781 Q284.1135,329.5781 283.426,330.6484 Q282.7385,331.7188 282.7385,333.8125 Q282.7385,335.9063 283.426,336.9766 Q284.1135,338.0469 285.4573,338.0469 Q286.0823,338.0469 286.676,337.7734 Q287.2698,337.5 287.8948,336.9219 L287.8948,339.6406 Z "/><text fill="#000000" font-family="sans-serif" font-size="12" lengthAdjust="spacingAndGlyphs" textLength="84" x="298.926" y="338.1543">RollerCoaster</text><line style="stroke: #A80036; stroke-width: 1.5;" x1="270.926" x2="384.926" y1="350" y2="350"/><line style="stroke: #A80036; stroke-width: 1.5;" x1="270.926" x2="384.926" y1="358" y2="358"/><!--class Dodgems--><rect fill="#FEFECE" filter="url(#f1tfc5sth3fy40)" height="48" id="Dodgems" style="stroke: #A80036; stroke-width: 1.5;" width="91" x="48.4255" y="318"/><ellipse cx="63.4255" cy="334" fill="#ADD1B2" rx="11" ry="11" style="stroke: #A80036; stroke-width: 1.0;"/><path d="M66.3943,339.6406 Q65.8161,339.9375 65.1755,340.0859 Q64.5349,340.2344 63.8318,340.2344 Q61.3318,340.2344 60.0114,338.5859 Q58.6911,336.9375 58.6911,333.8125 Q58.6911,330.6875 60.0114,329.0313 Q61.3318,327.375 63.8318,327.375 Q64.5349,327.375 65.1833,327.5313 Q65.8318,327.6875 66.3943,327.9844 L66.3943,330.7031 Q65.7693,330.125 65.1755,329.8516 Q64.5818,329.5781 63.9568,329.5781 Q62.613,329.5781 61.9255,330.6484 Q61.238,331.7188 61.238,333.8125 Q61.238,335.9063 61.9255,336.9766 Q62.613,338.0469 63.9568,338.0469 Q64.5818,338.0469 65.1755,337.7734 Q65.7693,337.5 66.3943,336.9219 L66.3943,339.6406 Z "/><text fill="#000000" font-family="sans-serif" font-size="12" lengthAdjust="spacingAndGlyphs" textLength="59" x="77.4255" y="338.1543">Dodgems</text><line style="stroke: #A80036; stroke-width: 1.5;" x1="49.4255" x2="138.4255" y1="350" y2="350"/><line style="stroke: #A80036; stroke-width: 1.5;" x1="49.4255" x2="138.4255" y1="358" y2="358"/><!--class Park--><rect fill="#FEFECE" filter="url(#f1tfc5sth3fy40)" height="48" id="Park" style="stroke: #A80036; stroke-width: 1.5;" width="60" x="174.926" y="318"/><ellipse cx="189.926" cy="334" fill="#ADD1B2" rx="11" ry="11" style="stroke: #A80036; stroke-width: 1.0;"/><path d="M192.8948,339.6406 Q192.3166,339.9375 191.676,340.0859 Q191.0354,340.2344 190.3323,340.2344 Q187.8323,340.2344 186.5119,338.5859 Q185.1916,336.9375 185.1916,333.8125 Q185.1916,330.6875 186.5119,329.0313 Q187.8323,327.375 190.3323,327.375 Q191.0354,327.375 191.6838,327.5313 Q192.3323,327.6875 192.8948,327.9844 L192.8948,330.7031 Q192.2698,330.125 191.676,329.8516 Q191.0823,329.5781 190.4573,329.5781 Q189.1135,329.5781 188.426,330.6484 Q187.7385,331.7188 187.7385,333.8125 Q187.7385,335.9063 188.426,336.9766 Q189.1135,338.0469 190.4573,338.0469 Q191.0823,338.0469 191.676,337.7734 Q192.2698,337.5 192.8948,336.9219 L192.8948,339.6406 Z "/><text fill="#000000" font-family="sans-serif" font-size="12" lengthAdjust="spacingAndGlyphs" textLength="28" x="203.926" y="338.1543">Park</text><line style="stroke: #A80036; stroke-width: 1.5;" x1="175.926" x2="233.926" y1="350" y2="350"/><line style="stroke: #A80036; stroke-width: 1.5;" x1="175.926" x2="233.926" y1="358" y2="358"/><!--class Playground--><rect fill="#FEFECE" filter="url(#f1tfc5sth3fy40)" height="48" id="Playground" style="stroke: #A80036; stroke-width: 1.5;" width="102" x="420.926" y="318"/><ellipse cx="435.926" cy="334" fill="#ADD1B2" rx="11" ry="11" style="stroke: #A80036; stroke-width: 1.0;"/><path d="M438.8948,339.6406 Q438.3166,339.9375 437.676,340.0859 Q437.0354,340.2344 436.3323,340.2344 Q433.8323,340.2344 432.5119,338.5859 Q431.1916,336.9375 431.1916,333.8125 Q431.1916,330.6875 432.5119,329.0313 Q433.8323,327.375 436.3323,327.375 Q437.0354,327.375 437.6838,327.5313 Q438.3323,327.6875 438.8948,327.9844 L438.8948,330.7031 Q438.2698,330.125 437.676,329.8516 Q437.0823,329.5781 436.4573,329.5781 Q435.1135,329.5781 434.426,330.6484 Q433.7385,331.7188 433.7385,333.8125 Q433.7385,335.9063 434.426,336.9766 Q435.1135,338.0469 436.4573,338.0469 Q437.0823,338.0469 437.676,337.7734 Q438.2698,337.5 438.8948,336.9219 L438.8948,339.6406 Z "/><text fill="#000000" font-family="sans-serif" font-size="12" lengthAdjust="spacingAndGlyphs" textLength="70" x="449.926" y="338.1543">Playground</text><line style="stroke: #A80036; stroke-width: 1.5;" x1="421.926" x2="521.926" y1="350" y2="350"/><line style="stroke: #A80036; stroke-width: 1.5;" x1="421.926" x2="521.926" y1="358" y2="358"/><!--class ITicketed--><rect fill="#FEFECE" filter="url(#f1tfc5sth3fy40)" height="73.6094" id="ITicketed" style="stroke: #A80036; stroke-width: 1.5;" width="152" x="55.9255" y="14"/><ellipse cx="99.7255" cy="30" fill="#B4A7E5" rx="11" ry="11" style="stroke: #A80036; stroke-width: 1.0;"/><path d="M95.6474,25.7656 L95.6474,23.6094 L103.038,23.6094 L103.038,25.7656 L100.5693,25.7656 L100.5693,33.8438 L103.038,33.8438 L103.038,36 L95.6474,36 L95.6474,33.8438 L98.1161,33.8438 L98.1161,25.7656 L95.6474,25.7656 Z "/><text fill="#000000" font-family="sans-serif" font-size="12" font-style="italic" lengthAdjust="spacingAndGlyphs" textLength="56" x="120.1255" y="34.1543">ITicketed</text><line style="stroke: #A80036; stroke-width: 1.5;" x1="56.9255" x2="206.9255" y1="46" y2="46"/><line style="stroke: #A80036; stroke-width: 1.5;" x1="56.9255" x2="206.9255" y1="54" y2="54"/><text fill="#000000" font-family="sans-serif" font-size="11" lengthAdjust="spacingAndGlyphs" textLength="125" x="61.9255" y="68.2104">defaultPrice() : double</text><text fill="#000000" font-family="sans-serif" font-size="11" lengthAdjust="spacingAndGlyphs" textLength="140" x="61.9255" y="81.0151">priceFor(Visitor) : double</text><!--class ISecurity--><rect fill="#FEFECE" filter="url(#f1tfc5sth3fy40)" height="60.8047" id="ISecurity" style="stroke: #A80036; stroke-width: 1.5;" width="176" x="383.926" y="183.5"/><ellipse cx="441.176" cy="199.5" fill="#B4A7E5" rx="11" ry="11" style="stroke: #A80036; stroke-width: 1.0;"/><path d="M437.0979,195.2656 L437.0979,193.1094 L444.4885,193.1094 L444.4885,195.2656 L442.0198,195.2656 L442.0198,203.3438 L444.4885,203.3438 L444.4885,205.5 L437.0979,205.5 L437.0979,203.3438 L439.5666,203.3438 L439.5666,195.2656 L437.0979,195.2656 Z "/><text fill="#000000" font-family="sans-serif" font-size="12" font-style="italic" lengthAdjust="spacingAndGlyphs" textLength="53" x="461.676" y="203.6543">ISecurity</text><line style="stroke: #A80036; stroke-width: 1.5;" x1="384.926" x2="558.926" y1="215.5" y2="215.5"/><line style="stroke: #A80036; stroke-width: 1.5;" x1="384.926" x2="558.926" y1="223.5" y2="223.5"/><text fill="#000000" font-family="sans-serif" font-size="11" lengthAdjust="spacingAndGlyphs" textLength="164" x="389.926" y="237.7104">isAllowedTo(Visitor): boolean</text><!--class IReviewed--><rect fill="#FEFECE" filter="url(#f1tfc5sth3fy40)" height="73.6094" id="IReviewed" style="stroke: #A80036; stroke-width: 1.5;" width="113" x="552.426" y="14"/><ellipse cx="576.426" cy="30" fill="#B4A7E5" rx="11" ry="11" style="stroke: #A80036; stroke-width: 1.0;"/><path d="M572.3479,25.7656 L572.3479,23.6094 L579.7385,23.6094 L579.7385,25.7656 L577.2698,25.7656 L577.2698,33.8438 L579.7385,33.8438 L579.7385,36 L572.3479,36 L572.3479,33.8438 L574.8166,33.8438 L574.8166,25.7656 L572.3479,25.7656 Z "/><text fill="#000000" font-family="sans-serif" font-size="12" font-style="italic" lengthAdjust="spacingAndGlyphs" textLength="61" x="592.426" y="34.1543">IReviewed</text><line style="stroke: #A80036; stroke-width: 1.5;" x1="553.426" x2="664.426" y1="46" y2="46"/><line style="stroke: #A80036; stroke-width: 1.5;" x1="553.426" x2="664.426" y1="54" y2="54"/><text fill="#000000" font-family="sans-serif" font-size="11" lengthAdjust="spacingAndGlyphs" textLength="83" x="558.426" y="68.2104">getRating(): int</text><text fill="#000000" font-family="sans-serif" font-size="11" lengthAdjust="spacingAndGlyphs" textLength="101" x="558.426" y="81.0151">getName(): String</text><!--link ThemePark to Attraction--><path d="M347.562,106.514 C336.578,132.144 323.906,161.712 314.707,183.177 " fill="none" id="ThemePark-Attraction" style="stroke: #A80036; stroke-width: 1.0;"/><polygon fill="#A80036" points="352.797,94.301,346.7569,98.2402,348.07,105.3307,354.1101,101.3915,352.797,94.301" style="stroke: #A80036; stroke-width: 1.0;"/><text fill="#000000" font-family="sans-serif" font-size="13" lengthAdjust="spacingAndGlyphs" textLength="66" x="339.926" y="137.0669">has_many</text><!--link ITicketed to Stall--><path d="M215.708,97.12 C249.389,113.413 289.139,130.387 326.926,141 C434.665,171.259 470.331,136.927 576.926,171 C582.872,172.901 588.889,175.27 594.802,177.909 " fill="none" id="ITicketed-Stall" style="stroke: #A80036; stroke-width: 1.0;"/><polygon fill="none" points="212.485,103.335,197.672,88.183,218.7,90.791,212.485,103.335" style="stroke: #A80036; stroke-width: 1.0;"/><!--link Attraction to RollerCoaster--><path d="M312.107,264.341 C315.92,282.8184 320.072,302.942 323.166,317.9332 " fill="none" id="Attraction-RollerCoaster" style="stroke: #A80036; stroke-width: 1.0;"/><polygon fill="none" points="305.208,265.543,308.021,244.541,318.919,262.714,305.208,265.543" style="stroke: #A80036; stroke-width: 1.0;"/><!--link Attraction to Dodgems--><path d="M237.358,254.113 C202.762,275.0704 161.331,300.1676 131.913,317.9881 " fill="none" id="Attraction-Dodgems" style="stroke: #A80036; stroke-width: 1.0;"/><polygon fill="none" points="233.994,247.967,254.727,243.591,241.248,259.941,233.994,247.967" style="stroke: #A80036; stroke-width: 1.0;"/><!--link Attraction to Park--><path d="M266.903,260.494 C251.901,279.9804 235.031,301.8943 222.683,317.9332 " fill="none" id="Attraction-Park" style="stroke: #A80036; stroke-width: 1.0;"/><polygon fill="none" points="261.436,256.119,279.183,244.541,272.53,264.659,261.436,256.119" style="stroke: #A80036; stroke-width: 1.0;"/><!--link Attraction to Playground--><path d="M358.198,256.708 C385.701,277.0922 417.75,300.8465 440.804,317.9332 " fill="none" id="Attraction-Playground" style="stroke: #A80036; stroke-width: 1.0;"/><polygon fill="none" points="353.683,262.074,341.783,244.541,362.019,250.827,353.683,262.074" style="stroke: #A80036; stroke-width: 1.0;"/><!--link Stall to TobaccoStall--><path d="M634.292,276.8459 C629.663,291.4274 625.008,306.0913 621.319,317.7118 " fill="none" id="Stall-TobaccoStall" style="stroke: #A80036; stroke-width: 1.0;"/><polygon fill="none" points="627.771,274.2511,640.495,257.307,641.115,278.4873,627.771,274.2511" style="stroke: #A80036; stroke-width: 1.0;"/><!--link Stall to IceCreamStall--><path d="M704.017,272.3779 C718.001,288.3961 732.412,304.9029 743.595,317.7118 " fill="none" id="Stall-IceCreamStall" style="stroke: #A80036; stroke-width: 1.0;"/><polygon fill="none" points="698.74,276.9767,690.86,257.307,709.286,267.7694,698.74,276.9767" style="stroke: #A80036; stroke-width: 1.0;"/><!--link Stall to CandyFlossStall--><path d="M731.243,251.351 C776.86,272.7977 833.223,299.2966 872.799,317.9031 " fill="none" id="Stall-CandyFlossStall" style="stroke: #A80036; stroke-width: 1.0;"/><polygon fill="none" points="728.192,257.652,713.071,242.807,734.149,244.982,728.192,257.652" style="stroke: #A80036; stroke-width: 1.0;"/><!--link IReviewed to Attraction--><path d="M580.749,105.298 C571.12,118.901 559.127,132.162 544.926,141 C476.441,183.623 441.032,141.574 365.926,171 C357.635,174.248 349.3,178.673 341.512,183.436 " fill="none" id="IReviewed-Attraction" style="stroke: #A80036; stroke-width: 1.0;"/><polygon fill="none" points="575.007,101.283,591.667,88.189,586.808,108.814,575.007,101.283" style="stroke: #A80036; stroke-width: 1.0;"/><!--link IReviewed to Stall--><path d="M624.418,107.428 C630.213,128.162 636.697,151.36 642.108,170.719 " fill="none" id="IReviewed-Stall" style="stroke: #A80036; stroke-width: 1.0;"/><polygon fill="none" points="617.667,109.278,619.024,88.132,631.15,105.509,617.667,109.278" style="stroke: #A80036; stroke-width: 1.0;"/><!--link ISecurity to Playground--><path d="M471.926,264.64 C471.926,283.0347 471.926,303.0226 471.926,317.9332 " fill="none" id="ISecurity-Playground" style="stroke: #A80036; stroke-width: 1.0;"/><polygon fill="none" points="464.926,264.541,471.926,244.541,478.926,264.541,464.926,264.541" style="stroke: #A80036; stroke-width: 1.0;"/><!--link ISecurity to TobaccoStall--><path d="M520.234,257.865 C542.91,277.9862 569.037,301.1689 587.93,317.9332 " fill="none" id="ISecurity-TobaccoStall" style="stroke: #A80036; stroke-width: 1.0;"/><polygon fill="none" points="515.532,263.052,505.218,244.541,524.824,252.58,515.532,263.052" style="stroke: #A80036; stroke-width: 1.0;"/><!--link ISecurity to RollerCoaster--><path d="M422.936,257.865 C399.941,277.9862 373.447,301.1689 354.288,317.9332 " fill="none" id="ISecurity-RollerCoaster" style="stroke: #A80036; stroke-width: 1.0;"/><polygon fill="none" points="418.503,252.443,438.164,244.541,427.722,262.98,418.503,252.443" style="stroke: #A80036; stroke-width: 1.0;"/><!--link ITicketed to RollerCoaster--><path d="M72.7115,101.979 C28.726,145.201 -17.6751,208.235 19.9255,257 C85.0272,341.4316 149.33,288.9985 251.926,318 C257.762,319.65 263.838,321.4122 269.898,323.1993 " fill="none" id="ITicketed-RollerCoaster" style="stroke: #A80036; stroke-width: 1.0;"/><polygon fill="none" points="68.0538,96.75,87.4109,88.13,77.6543,106.94,68.0538,96.75" style="stroke: #A80036; stroke-width: 1.0;"/><text fill="#000000" font-family="sans-serif" font-size="13" lengthAdjust="spacingAndGlyphs" textLength="76" x="20.9255" y="218.5669">implements</text><!--link ITicketed to Dodgems--><path d="M124.554,108.065 C116.174,171.791 102.8926,272.803 96.9608,317.9163 " fill="none" id="ITicketed-Dodgems" style="stroke: #A80036; stroke-width: 1.0;"/><polygon fill="none" points="117.642,106.934,127.19,88.018,131.523,108.76,117.642,106.934" style="stroke: #A80036; stroke-width: 1.0;"/><text fill="#000000" font-family="sans-serif" font-size="13" lengthAdjust="spacingAndGlyphs" textLength="76" x="117.926" y="218.5669">implements</text><!--link ThemePark to Stall--><path d="M456.355,100.601 C501.009,126.005 554.549,156.464 594.624,179.263 " fill="none" id="ThemePark-Stall" style="stroke: #A80036; stroke-width: 1.0;"/><polygon fill="#FFFFFF" points="444.911,94.091,448.1482,100.5346,455.3413,100.0248,452.1041,93.5811,444.911,94.091" style="stroke: #A80036; stroke-width: 1.0;"/><text fill="#000000" font-family="sans-serif" font-size="13" lengthAdjust="spacingAndGlyphs" textLength="66" x="521.926" y="137.0669">has_many</text><!--
@startuml
class ThemePark {
  ArrayList<Attraction> attractions
  ArrayList<Stall> stalls
  visit(Visitor, Attraction)
}

class Visitor {
  int age
  int height
  double money
}

abstract class Stall {
  String name
  String ownerName
  String parkingSpot
}

class IceCreamStall {
}

class CandyFlossStall {
}

class TobaccoStall {
}


abstract class Attraction {
  String name
}

class RollerCoaster {
}

class Dodgems {
}

class Park {
}

class Playground {
}

Interface ITicketed {
  defaultPrice() : double
  priceFor(Visitor) : double
}

Interface ISecurity {
  isAllowedTo(Visitor): boolean
}

Interface IReviewed {
  getRating(): int
  getName(): String
}



ThemePark *- - Attraction : has_many
ITicketed <|- - Stall
Attraction <|- - RollerCoaster
Attraction <|- - Dodgems
Attraction <|- - Park
Attraction <|- - Playground
Stall <|- - TobaccoStall
Stall <|- - IceCreamStall
Stall <|- - CandyFlossStall

IReviewed <|- - Attraction
IReviewed <|- - Stall


ISecurity <|- - Playground
ISecurity <|- - TobaccoStall
ISecurity <|- - RollerCoaster

ITicketed <|- - RollerCoaster : implements
ITicketed <|- - Dodgems : implements
ThemePark o- - Stall : has_many
@enduml

PlantUML version 1.2018.14(Fri Dec 21 16:33:16 UTC 2018)
(GPL source distribution)
Java Runtime: OpenJDK Runtime Environment
JVM: OpenJDK 64-Bit Server VM
Java Version: 1.8.0_181-8u181-b13-2~deb9u1-b13
Operating System: Linux
OS Version: 4.9.125-linuxkit
Default Encoding: UTF-8
Language: en
Country: null
--></g></svg>